# xmcd
#
# Track frame offsets:
#	183
#	14465
#	30313
#	46008
#	60023
#	77163
#	87498
#	99538
#	112493
#	123668
#	135518
#	147203
#	166298
#	185945
#	196565
#	207168
#	222353
#	237800
#	250883
#	263960
#
# Disc length: 3711
#
# Revision: 2
# Processed by: cddbd v1.5.1PL0 Copyright (c) Steve Scherf et al.
# Submitted via: OrangeCD 4.3
# Normalized: r0:DSETVAR1,TDELIM( - ),TSWAP
#
DISCID=180e7d14
DTITLE=Various Artist - Solid Country Gold
DYEAR=1900
DGENRE=Country
TTITLE0=Glenn Campbell - Rhinestone Cowboy
TTITLE1=Billy Jo Spears - Blanket on the ground
TTITLE2=Engelbert Humperdinck - Please Release Me
TTITLE3=Roy Drusky - El Paso
TTITLE4=Kenny Rogers and Sheena Easton - We've Got Tonight
TTITLE5=Leroy van Dyke - Heartaches By The Number
TTITLE6=Wanda Jackson - Stand By Your Man
TTITLE7=Dr. Hook - Sharing The Night Together
TTITLE8=Tom T. Hall - Ravishing Ruby
TTITLE9=Anne Murray - Walk Right Bank
TTITLE10=Charlie Rich - You Can Have Her
TTITLE11=Bobby Gentry - Ode To Billy Joe
TTITLE12=Kenny Rogers - Coward Of The Count
TTITLE13=Jerry Lee Lewis and Linda Gail Lewis - Jacksons
TTITLE14=Dave Dudley - Oh Lonesome Me
TTITLE15=Juice Newton - Queen Of Hearts
TTITLE16=Tom Jones - Detroit City
TTITLE17=Crystal Gayle - Talking In Your Sleep
TTITLE18=Faron Young - Save The Last Dance For Me
TTITLE19=Jeannie C. Riley - Harper Valley PTA
EXTD=
EXTT0=
EXTT1=
EXTT2=
EXTT3=
EXTT4=
EXTT5=
EXTT6=
EXTT7=
EXTT8=
EXTT9=
EXTT10=
EXTT11=
EXTT12=
EXTT13=
EXTT14=
EXTT15=
EXTT16=
EXTT17=
EXTT18=
EXTT19=
PLAYORDER=
